HIERARCHY
ROOT hip
{
	OFFSET 0.000000 0.000000 0.000000 
	CHANNELS 6 Xposition Yposition Zposition Xrotation Zrotation Yrotation
	JOINT abdomen
	{
		OFFSET 0.000000 3.402643 0.000000 
		CHANNELS 3 Xrotation Zrotation Yrotation
		JOINT chest
		{
			OFFSET 0.000000 8.438565 -0.680529 
			CHANNELS 3 Xrotation Zrotation Yrotation
			JOINT neck
			{
				OFFSET 0.000000 10.207942 -0.272212 
				CHANNELS 3 Xrotation Zrotation Yrotation
				JOINT head
				{
					OFFSET 0.000000 3.130431 0.000000 
					CHANNELS 3 Xrotation Zrotation Yrotation
					End Site
					{
						OFFSET 0.000000 3.130435 0.000000 
					}
				}
			}
			JOINT lCollar
			{
				OFFSET 3.470700 6.669187 -0.816635 
				CHANNELS 3 Yrotation Zrotation Xrotation
				JOINT lShldr
				{
					OFFSET 3.198488 0.000000 0.000000 
					CHANNELS 3 Zrotation Yrotation Xrotation
					JOINT lForeArm
					{
						OFFSET 10.139888 0.000000 0.000000 
						CHANNELS 3 Yrotation Zrotation Xrotation
						JOINT lHand
						{
							OFFSET 8.370511 0.000000 0.000000 
							CHANNELS 3 Zrotation Yrotation Xrotation
							End Site
							{
								OFFSET 4.083176 0.000000 0.000000 
							}
						}
					}
				}
			}
			JOINT rCollar
			{
				OFFSET -3.470700 6.669187 -0.816635 
				CHANNELS 3 Yrotation Zrotation Xrotation
				JOINT rShldr
				{
					OFFSET -3.198488 0.000000 0.000000 
					CHANNELS 3 Zrotation Yrotation Xrotation
					JOINT rForeArm
					{
						OFFSET -10.139888 0.000000 0.000000 
						CHANNELS 3 Yrotation Zrotation Xrotation
						JOINT rHand
						{
							OFFSET -8.370511 0.000000 0.000000 
							CHANNELS 3 Zrotation Yrotation Xrotation
							End Site
							{
								OFFSET -4.083176 0.000000 0.000000 
							}
						}
					}
				}
			}
		}
	}
	JOINT lThigh
	{
		OFFSET 5.308129 -1.633274 1.361059 
		CHANNELS 3 Xrotation Zrotation Yrotation
		JOINT lShin
		{
			OFFSET -2.041588 -20.007561 0.000000 
			CHANNELS 3 Xrotation Zrotation Yrotation
			JOINT lFoot
			{
				OFFSET 0.000000 -19.190928 -1.224953 
				CHANNELS 3 Xrotation Yrotation Zrotation
				End Site
				{
					OFFSET 0.000000 -2.449906 4.627600 
				}
			}
		}
	}
	JOINT rThigh
	{
		OFFSET -5.308129 -1.633274 1.361059 
		CHANNELS 3 Xrotation Zrotation Yrotation
		JOINT rShin
		{
			OFFSET 2.041588 -20.007561 0.000000 
			CHANNELS 3 Xrotation Zrotation Yrotation
			JOINT rFoot
			{
				OFFSET 0.000000 -19.190928 -1.224953 
				CHANNELS 3 Xrotation Yrotation Zrotation
				End Site
				{
					OFFSET 0.000000 -2.449906 4.627600 
				}
			}
		}
	}
}
MOTION
Frames: 13
Frame Time: 0.033333
-13.934545 35.298580 32.781685 -2.025480 -0.197089 -21.236300 -0.019530 -0.019644 -0.019419 0.019531 -0.010931 -0.028889 -0.028869 -0.769660 -0.054099 15.442300 -6.041650 12.990200 23.589939 -15.309011 11.421597 -9.642290 0.439737 42.543701 -48.159901 2.168330 -20.316200 17.013300 -8.820620 -4.919550 -20.807171 23.552177 13.807347 22.539600 -1.300270 24.742901 48.069500 -1.869450 -22.778799 -29.077499 -17.991600 -1.898460 -30.064850 -2.511788 32.683285 50.680511 0.350859 13.007927 -27.135334 -3.692030 9.148728 4.685750 6.373516 -7.472257 33.903168 -0.290942 -2.902548 -38.358364 2.958725 -3.574428 
-12.728033 34.385372 32.467026 -4.019970 -0.778100 -20.624001 -0.019530 -0.019644 -0.019419 0.019532 -0.012104 -0.058163 -0.028689 -0.918882 -0.027290 17.591000 -6.074440 14.046800 23.553810 -12.543466 14.422235 -12.505400 -0.542821 23.339701 -46.708000 2.077180 -18.848700 23.521200 -5.550080 -6.338920 -19.816109 23.686844 17.210976 19.413500 2.057880 8.858980 49.301899 -1.932850 -22.992901 -33.735401 -17.046101 -2.606280 -34.244106 -1.828501 33.121441 58.820324 0.533726 17.993671 -25.438581 -3.380912 8.787135 2.799484 4.981066 -7.596226 41.492275 -0.344779 -3.561575 -41.860718 2.625153 -2.169013 
-11.781808 34.997505 32.547012 -7.402130 0.074913 -19.583000 -0.019530 -0.019644 -0.019419 0.019567 -0.022662 -0.321625 -0.033473 -2.799640 0.081702 21.240000 -4.585900 14.230600 23.228218 -10.178137 19.259666 -12.341200 -4.368510 10.583600 -48.498901 2.155450 -17.442400 34.669102 -0.586648 -8.223010 -18.730732 22.668852 22.445272 15.609500 6.289210 -3.426750 49.818901 -1.963940 -23.237801 -41.866299 -14.788600 -4.312770 -40.793079 0.179989 34.098839 69.191429 0.639384 24.578720 -12.489716 -1.625380 7.671095 5.985583 2.509065 -8.087995 40.364944 -0.345502 -4.462662 -40.946728 2.060243 -0.919280 
-10.963020 36.855141 33.323605 -10.934700 1.464560 -20.056999 -0.019530 -0.019644 -0.019419 0.019801 -0.035193 -0.878207 -0.086813 -5.444830 0.426255 25.796499 -4.472740 15.164300 23.750477 -9.725192 23.363844 -6.682640 -7.715070 4.379640 -48.645401 2.156920 -16.303101 41.438400 -0.090247 -9.860800 -16.292372 18.491035 25.000000 8.593440 11.190600 -10.550300 47.596001 -1.847080 -23.900600 -49.525902 -13.420800 -5.953450 -42.828938 4.040650 34.076191 74.770798 0.933402 19.174858 1.525146 0.153856 -3.633087 12.895761 -0.625030 -7.835058 31.947264 -0.282055 -4.844974 -35.920944 1.488907 -0.044314 
-10.190088 39.438026 34.536297 -13.532300 2.519750 -21.670700 -0.019530 -0.019644 -0.019419 0.020311 -0.059824 -1.492950 -0.184524 -7.725130 0.860978 29.881800 -6.132120 16.628000 24.847713 -9.901617 25.000000 -0.684751 -9.692140 -0.352725 -44.731098 1.926670 -15.369100 40.251701 -2.894580 -10.512600 -13.870899 15.009815 25.000000 0.823831 17.007601 -15.967300 41.630299 -1.562240 -23.329800 -49.875702 -12.709900 -6.337670 -42.626919 6.367650 35.315994 78.335052 1.299858 11.203396 -2.092306 0.485825 -9.784419 14.750905 -4.423361 -7.738169 31.286167 -0.226249 -4.418175 -28.700756 0.817485 1.049124 
-9.534056 42.013844 35.820095 -14.562700 2.966470 -23.082899 -0.019530 -0.019644 -0.019419 0.020671 -0.072332 -1.805200 -0.251022 -8.860070 1.075110 32.800301 -7.807190 17.384899 25.561693 -9.756166 25.000000 3.961580 -11.627700 -5.013480 -37.144600 1.566970 -15.848400 37.388302 -2.719380 -9.628440 -11.783350 12.417033 25.000000 -6.381560 22.500500 -20.770901 32.351898 -1.157930 -20.793501 -45.638302 -10.016100 -6.831220 -41.881470 7.447243 36.155640 77.756577 1.515436 3.874040 -9.692375 0.528554 -7.364217 13.127830 -7.037897 -8.576941 33.488384 -0.164296 -5.218311 -20.715244 0.162854 2.926195 
-9.048237 43.969883 37.105694 -14.280300 3.150840 -23.012899 -0.019530 -0.019644 -0.019419 0.020610 -0.070377 -1.756410 -0.240477 -8.905390 1.030890 34.576401 -8.040960 16.690300 25.495237 -9.672750 25.000000 9.338410 -14.683700 -8.792660 -27.081100 1.155950 -16.667500 36.505402 0.582949 -8.337820 -10.533802 10.324963 25.000000 -13.017100 26.081100 -24.565201 21.856600 -0.779191 -18.870501 -39.694500 -7.127430 -6.843400 -40.728638 7.359475 35.151535 72.541885 1.448069 -1.086473 -15.083606 0.589249 -6.763387 11.944736 -7.720503 -11.055294 32.860313 -0.046606 -5.367081 -13.842867 -0.050244 3.630216 
-8.791545 45.092369 38.508011 -13.155900 3.481600 -21.347799 -0.019530 -0.019644 -0.019419 0.020352 -0.061387 -1.531980 -0.196557 -8.409190 0.838827 35.298401 -6.700470 14.750900 24.637445 -10.007369 25.000000 15.572200 -17.612600 -11.473000 -17.707600 0.856795 -18.053301 33.553501 5.367930 -6.196800 -10.184094 8.229489 25.000000 -18.162800 27.753700 -27.173800 12.259100 -0.497304 -18.527901 -33.893600 -6.756580 -5.818970 -38.860367 5.501441 32.987415 62.685482 1.108138 -1.536980 -18.090595 0.925761 -8.204694 11.460414 -5.340826 -14.996768 29.741457 0.123408 -10.655752 -9.016868 -0.243113 4.977326 
-8.710987 45.422646 39.969311 -10.991500 3.924280 -19.461399 -0.019530 -0.019644 -0.019419 0.019994 -0.055898 -1.151040 -0.135221 -7.666260 0.506519 34.739399 -5.087880 12.798600 23.660904 -10.487543 23.310131 20.829100 -19.472500 -14.272300 -11.283900 0.691707 -18.908199 29.199600 8.635860 -4.447210 -9.979673 6.637243 24.845730 -21.550200 28.225700 -28.931299 5.643460 -0.359218 -18.582701 -30.922199 -7.646280 -5.000910 -36.405651 2.685149 30.146156 48.586514 0.593898 2.190952 -19.073378 1.139085 -9.070461 9.707369 -1.133327 -17.576414 26.822027 0.199049 -14.069901 -7.010613 -0.058755 3.288170 
-8.713335 44.984413 41.545193 -8.224390 4.215590 -18.688900 -0.019530 -0.019644 -0.019419 0.019651 -0.033220 -0.585087 -0.056419 -5.526560 0.113031 33.275299 -5.297130 10.498800 23.388683 -10.815475 19.807686 24.631300 -20.158001 -17.972700 -8.023440 0.626830 -19.438101 27.030701 11.468800 -3.386670 -9.043442 5.960680 21.376554 -24.313700 27.797899 -30.374001 2.334960 -0.298951 -18.287300 -31.388599 -7.296190 -5.182210 -32.840137 -0.098452 25.243240 31.238499 0.032761 8.303302 -17.888655 1.077210 -8.957788 12.137877 5.194685 -16.229544 14.696569 0.181818 -12.804107 -5.511772 0.479625 -3.195590 
-8.632699 43.616570 43.237564 -5.460660 4.621180 -18.813999 -0.019530 -0.019644 -0.019419 0.019547 -0.018361 -0.214289 -0.029168 -3.705570 -0.101655 30.642300 -6.537890 8.889580 23.700661 -11.312756 15.849597 27.799200 -19.818899 -22.665400 -6.669210 0.601018 -19.713200 26.887899 13.237400 -2.926190 -7.192836 5.610085 17.571550 -27.387600 27.207800 -33.327702 0.831794 -0.276172 -17.876900 -33.081799 -6.443720 -5.748150 -29.126846 -1.817054 15.932527 15.764767 -0.431923 16.115561 -15.393561 0.691095 -7.407176 13.630514 9.499472 -12.411605 6.477724 0.113323 -8.772213 -6.967007 1.157716 -8.822076 
-8.361661 41.337345 45.054077 -3.924120 5.500940 -19.097000 -0.019530 -0.019644 -0.019419 0.019533 -0.012495 -0.067921 -0.021667 -3.247310 -0.191068 27.536100 -8.060230 8.350420 24.080370 -11.963536 12.949352 30.752899 -18.831499 -28.070801 -6.135780 0.589736 -19.754999 28.131399 13.687200 -2.979230 -4.944666 4.154458 14.782698 -30.427099 26.599001 -39.775398 0.465731 -0.269260 -17.463400 -35.042801 -5.571490 -6.410270 -27.265495 -2.069897 6.409429 9.357734 -0.594018 19.639177 -14.612494 0.506208 -6.403903 13.500509 10.784589 -11.379472 6.271356 0.015514 -4.731141 -13.064712 2.393309 -12.030661 
-7.901219 38.436306 46.945850 -3.811050 5.842760 -18.597300 -0.019530 -0.019644 -0.019419 0.019534 -0.013277 -0.087436 -0.017612 -4.016960 -0.245724 24.827000 -8.448620 8.740450 23.944010 -11.462984 11.518145 33.178902 -18.010000 -35.122101 -6.073290 0.588460 -19.733299 29.888901 13.590600 -3.229760 -3.088516 2.340350 13.563639 -33.466202 25.598600 -47.574001 0.930698 -0.272059 -17.278700 -36.879101 -5.336660 -6.870560 -33.735542 -2.666198 -0.088242 23.204624 -0.398800 14.832241 -16.807018 -0.344465 -1.608536 15.631665 11.207395 -12.937704 6.756628 -0.051132 -3.386966 -20.703306 3.468165 -11.844700 
